<svg version="1.1" id="Layer_1" xmlns="http://www.w3.org/2000/svg" x="0" y="0" viewBox="0 0 960 960" xml:space="preserve"><style>.st1{fill:#fff}.st3{fill:#b3e2e5}.st4{fill:#cc333f}.st5{fill:#aa1f36}.st6{fill:#f2f2f2}</style><path style="fill:#ffe6cf" d="M189.4 363.7h581.3v413.4H189.4z"/><path class="st1" d="M260.4 477.6h261.9v228.5H260.4z"/><path style="fill:#c5eced" d="M278.4 494.4h224.5v192.3H278.4z"/><path class="st3" d="M503 686.7v-71.6l-220.8 71.6zm-223.2-26L503 589.3v-36.7L279.8 624zm0-100.1 207.1-66.2H279.8z"/><path class="st4" d="M215.3 443.9h.6c-36.4 0-65.3-29.5-65.3-65.8v-59.6h129.2v59.6c0 36.4-28.2 65.8-64.5 65.8"/><path class="st5" d="M282.5 318.5H150.8l117.1-167.9h92.7z"/><path class="st1" d="M348.9 443.9h-1.7c-36.4 0-67.5-29.5-67.5-65.8v-59.6h135.6v59.6c.1 36.4-30 65.8-66.4 65.8"/><path class="st6" d="M415.4 318.5H279.8l80.8-167.9h82.8z"/><path class="st5" d="M680.2 318.5h129L692.1 150.6h-92.7z"/><path class="st6" d="M544.6 318.5h135.6l-80.8-167.9h-82.8z"/><path class="st4" d="M479.4 443.9h.9c-36.4 0-64.9-29.5-64.9-65.8v-59.6h129.2v59.6c0 36.4-28.9 65.8-65.2 65.8"/><path class="st1" d="M613 443.9h-1.3c-36.4 0-67.1-29.5-67.1-65.8v-59.6h135.6v59.6c0 36.4-30.8 65.8-67.2 65.8"/><path class="st4" d="M743.5 443.9h1.3c-36.4 0-64.5-29.5-64.5-65.8v-59.6h129.2v59.6c-.1 36.4-29.7 65.8-66 65.8"/><path class="st5" d="M443.3 150.6h79l22.3 167.9H415.4z"/><path style="fill:#f2c5a0" d="M176.4 777.1h607.1v32.3H176.4z"/><path style="fill:#dda77f" d="M176.4 764.2h607.1v12.9H176.4z"/><path class="st1" d="M564.6 477.6h169.6v286.6H564.6z"/><path class="st3" d="M583 494.4h132.8v269.8H583z"/><path class="st1" d="M564.6 620.9h169.6v16.8H564.6z"/></svg>